<?xml version="1.0" standalone="no"?>
<svg
  width="600"
  height="600"
  viewBox="0 0 600 600"
  xmlns="http://www.w3.org/2000/svg"
>
  <g transform="translate(300,300)">
    <path d="M116.4,-170.1C152.8,-157.7,185.5,-128.7,191.9,-93.8C198.3,-58.9,178.4,-18.1,175.6,27.7C172.8,73.5,187.3,124.2,168.2,145.1C149.1,166.1,96.4,157.4,48.8,175.9C1.1,194.5,-41.4,240.2,-72.4,235.9C-103.3,231.7,-122.7,177.4,-144.7,134.9C-166.6,92.4,-191.2,61.7,-188,31.9C-184.8,2,-153.8,-27,-138.4,-64.2C-123,-101.3,-123.1,-146.6,-102.6,-166.2C-82.2,-185.9,-41.1,-179.9,-0.5,-179.1C40,-178.3,80,-182.5,116.4,-170.1Z" fill="#9900ef" />
  </g>
</svg>
  